<svg xmlns="http://www.w3.org/2000/svg" viewBox="0 0 220 160" role="img" aria-labelledby="title desc">
  <title id="title">PowerPlant Maintenance System logo</title>
  <desc id="desc">Sunburst over a blue turbine dome and green power plant silhouette with a POWER wordmark.</desc>
  <defs>
    <linearGradient id="sky" x1="0" y1="0" x2="0" y2="1">
      <stop offset="0%" stop-color="#2b7bbb"/>
      <stop offset="100%" stop-color="#195b95"/>
    </linearGradient>
    <linearGradient id="sun" x1="0" y1="0" x2="0" y2="1">
      <stop offset="0%" stop-color="#ffd54a"/>
      <stop offset="100%" stop-color="#d79a08"/>
    </linearGradient>
    <linearGradient id="plant" x1="0" y1="0" x2="0" y2="1">
      <stop offset="0%" stop-color="#1e7b53"/>
      <stop offset="100%" stop-color="#0b4e35"/>
    </linearGradient>
  </defs>

  <g transform="translate(110 62)">
    <g fill="url(#sun)">
      <polygon points="0,-56 5,-14 -5,-14"/>
      <polygon points="18,-53 12,-13 3,-16" transform="rotate(15)"/>
      <polygon points="18,-53 12,-13 3,-16" transform="rotate(30)"/>
      <polygon points="18,-53 12,-13 3,-16" transform="rotate(45)"/>
      <polygon points="18,-53 12,-13 3,-16" transform="rotate(60)"/>
      <polygon points="18,-53 12,-13 3,-16" transform="rotate(75)"/>
      <polygon points="18,-53 12,-13 3,-16" transform="rotate(90)"/>
      <polygon points="18,-53 12,-13 3,-16" transform="rotate(105)"/>
      <polygon points="18,-53 12,-13 3,-16" transform="rotate(120)"/>
      <polygon points="18,-53 12,-13 3,-16" transform="rotate(135)"/>
      <polygon points="18,-53 12,-13 3,-16" transform="rotate(150)"/>
      <polygon points="18,-53 12,-13 3,-16" transform="rotate(165)"/>
      <polygon points="18,-53 12,-13 3,-16" transform="rotate(180)"/>
      <polygon points="18,-53 12,-13 3,-16" transform="rotate(195)"/>
      <polygon points="18,-53 12,-13 3,-16" transform="rotate(210)"/>
      <polygon points="18,-53 12,-13 3,-16" transform="rotate(225)"/>
      <polygon points="18,-53 12,-13 3,-16" transform="rotate(240)"/>
      <polygon points="18,-53 12,-13 3,-16" transform="rotate(255)"/>
      <polygon points="18,-53 12,-13 3,-16" transform="rotate(270)"/>
      <polygon points="18,-53 12,-13 3,-16" transform="rotate(285)"/>
      <polygon points="18,-53 12,-13 3,-16" transform="rotate(300)"/>
      <polygon points="18,-53 12,-13 3,-16" transform="rotate(315)"/>
      <polygon points="18,-53 12,-13 3,-16" transform="rotate(330)"/>
      <polygon points="18,-53 12,-13 3,-16" transform="rotate(345)"/>
      <circle cx="0" cy="0" r="40"/>
    </g>

    <path d="M-44 16a44 44 0 0 1 88 0v18h-88z" fill="#4fb4ea"/>
    <path d="M-34 14a34 34 0 0 1 68 0v20h-68z" fill="url(#sky)"/>
    <path d="M-64 34h128v16H-64z" fill="#f3d374"/>

    <g fill="url(#plant)">
      <path d="M-52 52h104v18H-52z"/>
      <path d="M-28 52V20l18 16V52z"/>
      <path d="M-6 52V6h12v46z"/>
      <path d="M10 52V26l18-12v38z"/>
      <path d="M-38 52l12-20h10l-12 20z"/>
      <path d="M18 52l10-18h10l-8 18z"/>
      <rect x="-17" y="35" width="8" height="17" fill="#d6f3de" opacity="0.55"/>
      <rect x="-2" y="35" width="8" height="17" fill="#d6f3de" opacity="0.55"/>
      <rect x="13" y="35" width="8" height="17" fill="#d6f3de" opacity="0.55"/>
    </g>
  </g>

  <g transform="translate(66 126)">
    <rect width="88" height="16" rx="2" fill="#b98008"/>
    <text x="44" y="11.5" text-anchor="middle" font-family="Segoe UI, Arial, sans-serif" font-size="10" font-weight="700" letter-spacing="2" fill="#fff8d6">POWER</text>
  </g>
</svg>